<svg width="500" height="250" viewBox="0 0 500 250" fill="none" xmlns="http://www.w3.org/2000/svg">
<path d="M450.35 165.59C449.98 146.83 446.97 127.49 441.53 113.14C436.91 102.29 429.2 85.4197 415.17 74.5997C404.29 66.1997 376.51 66.4597 368.97 78.5297C362.46 88.9497 358.34 102.64 355.81 122.87C353.28 143.1 356.66 164.04 359.92 178.32C362.41 189.23 372.65 188.31 386.69 188.89C393.64 189.18 401.98 186.72 403.28 177.91C405.27 163.51 412.16 163.39 415.47 173.66C417.7 180.52 418.43 185.36 427.49 185.23C445.21 184.98 450.65 180.95 450.35 165.58V165.59ZM419.62 109.62C414.61 118 406.09 123.19 396.82 123.48C396.54 123.49 396.26 123.49 395.98 123.49C387.96 123.49 380.87 119.81 376.41 113.29C375.05 111.31 375.55 108.6 377.53 107.24C379.52 105.88 382.22 106.39 383.58 108.38C386.49 112.62 391.21 114.92 396.55 114.77C402.84 114.58 408.66 110.98 412.14 105.15C413.38 103.08 416.05 102.41 418.11 103.64C420.18 104.88 420.85 107.55 419.62 109.61V109.62Z" fill="#B592FF"/>
<path d="M249.06 87.43C254.41 104.65 266.25 112.57 265.35 129.51C264.44 146.77 249.39 163.58 248.24 179.62C247.34 192.13 286.9 191.8 291.44 184.17C295.98 176.54 295.42 168.36 299.83 167.95C304.24 167.53 308.83 176.65 310.99 184.24C313.29 192.33 348.77 188.78 347.19 178.94C342.52 149.84 329.53 135.24 330.06 126.56C330.57 117.88 340.64 106.45 345.44 86.65C347.9 76.53 320.26 66.67 313.94 73.46C307.62 80.25 303.54 89.34 300.44 89.34C297.34 89.34 289.49 73.73 283.68 71.22C277.87 68.72 242.87 67.54 249.07 87.44H249.06V87.43Z" fill="#B592FF"/>
<path d="M246.96 127.63C245.01 93.5003 226.94 61.7403 190.87 59.4603C146.09 58.0203 128.27 106.08 128.27 140.03V140.32C128.27 173.49 156.46 186.19 177.54 189.6C198.61 193.01 229.21 188.04 239.63 166.52C244.99 155.43 247.41 137.28 246.96 127.63ZM225.53 143.31C213.51 174.84 155.76 170.96 148.01 139.97C140.26 108.98 165.05 118.59 186.74 121.07C204.6 123.11 237.56 111.78 225.53 143.31Z" fill="#B592FF"/>
<path d="M480.35 165.92C480.35 171.69 475.7 176.07 468.77 175.43C463.02 174.91 458.32 170.75 458.32 164.98C458.32 159.21 463.02 155.07 468.77 154.53C475.7 153.88 480.35 157.6 480.35 165.91V165.92Z" fill="#B592FF"/>
<path d="M50.78 71.2601C58.61 70.4201 65.39 70.4001 67.9 78.8901C69.88 85.8401 70.34 94.1701 73.42 95.3001C77.35 96.7501 82.51 89.1801 85.43 78.2301C86.12 75.6301 88.53 71.9201 95.32 72.4601C117.04 74.1901 121.77 74.4701 123.44 82.3801C126.54 97.0401 118.09 124.27 113.03 138.31C109.08 149.28 103.58 166.17 93.11 178.7C86.2 186.96 50.79 187.03 45.14 177.15C38.9 166.25 33.43 153.29 28.18 133.74H28.17C22.92 114.2 19.88 94.6101 19.65 83.9301C19.46 75.4001 34.98 72.9501 50.77 71.2601H50.78Z" fill="#B592FF"/>
</svg>
